<svg width="16" height="16" viewBox="0 0 16 16" fill="none" xmlns="http://www.w3.org/2000/svg">
<path fill-rule="evenodd" clip-rule="evenodd" d="M4 4.66661C4 3.56204 4.89543 2.66661 6 2.66661C7.10457 2.66661 8 3.56204 8 4.66661C8 5.77118 7.10457 6.66661 6 6.66661C4.89543 6.66661 4 5.77118 4 4.66661ZM6 1.33327C4.15905 1.33327 2.66667 2.82566 2.66667 4.66661C2.66667 6.50756 4.15905 7.99994 6 7.99994C7.84095 7.99994 9.33333 6.50756 9.33333 4.66661C9.33333 2.82566 7.84095 1.33327 6 1.33327ZM3.33333 9.33327C2.44928 9.33327 1.60143 9.68446 0.976311 10.3096C0.35119 10.9347 0 11.7826 0 12.6666V13.9999C0 14.3681 0.298477 14.6666 0.666667 14.6666C1.03486 14.6666 1.33333 14.3681 1.33333 13.9999V12.6666C1.33333 12.1362 1.54405 11.6275 1.91912 11.2524C2.29419 10.8773 2.8029 10.6666 3.33333 10.6666H8.66667C9.1971 10.6666 9.70581 10.8773 10.0809 11.2524C10.456 11.6275 10.6667 12.1362 10.6667 12.6666V13.9999C10.6667 14.3681 10.9651 14.6666 11.3333 14.6666C11.7015 14.6666 12 14.3681 12 13.9999V12.6666C12 11.7826 11.6488 10.9347 11.0237 10.3096C10.3986 9.68446 9.55072 9.33327 8.66667 9.33327H3.33333ZM12.6878 9.91994C12.7799 9.56344 13.1435 9.34906 13.5 9.44111C14.2151 9.62575 14.8486 10.0427 15.3011 10.6264C15.7536 11.2101 15.9994 11.9276 16 12.6661V12.6666V13.9999C16 14.3681 15.7015 14.6666 15.3333 14.6666C14.9651 14.6666 14.6667 14.3681 14.6667 13.9999V12.6668C14.6663 12.2238 14.5188 11.7934 14.2474 11.4433C13.9759 11.093 13.5957 10.8429 13.1667 10.7321C12.8102 10.6401 12.5958 10.2764 12.6878 9.91994ZM10.832 1.44078C10.4753 1.34945 10.1122 1.56457 10.0208 1.92125C9.92951 2.27793 10.1446 2.64112 10.5013 2.73244C10.9315 2.84259 11.3128 3.09279 11.5851 3.4436C11.8574 3.7944 12.0052 4.22586 12.0052 4.66994C12.0052 5.11403 11.8574 5.54548 11.5851 5.89629C11.3128 6.24709 10.9315 6.49729 10.5013 6.60744C10.1446 6.69877 9.92951 7.06195 10.0208 7.41864C10.1122 7.77532 10.4753 7.99043 10.832 7.89911C11.549 7.71552 12.1846 7.29852 12.6384 6.71385C13.0922 6.12918 13.3386 5.41008 13.3386 4.66994C13.3386 3.9298 13.0922 3.21071 12.6384 2.62603C12.1846 2.04136 11.549 1.62436 10.832 1.44078Z" fill="#70757A"/>
</svg>
